<svg width="800" height="592" xmlns="http://www.w3.org/2000/svg" xml:space="preserve" enable-background="new 0 0 800 592" version="1.1">

 <g>
  <title>Layer 1</title>
  <path id="svg_1" d="m313.46612,593c-6.63894,-2.41724 -12.80874,-4.84228 -18.9851,-7.25049c-51.40764,-20.04382 -92.1631,-53.41217 -122.91362,-99.00168c-20.76744,-30.78897 -34.0988,-64.69653 -40.09348,-101.3634c-8.90159,-54.4472 -1.82502,-106.81839 21.91622,-156.63695c21.67132,-45.47503 54.09875,-81.63322 96.6671,-108.63639c7.69715,-4.88269 7.70762,-4.84895 3.85371,-13.18007c-2.02672,-4.38123 -4.03235,-8.77246 -6.00096,-13.17997c-0.18129,-0.40592 -0.02413,-0.96301 -0.02413,-2.46129c18.81586,0.76978 37.37455,3.45072 57.41425,4.93406c-10.6344,16.8862 -21.99231,31.86822 -33.14587,48.10684c-5.58484,-8.06316 -7.70099,-17.14657 -12.88987,-24.88372c-5.31189,1.86646 -9.50232,5.25445 -13.81872,8.21042c-46.95053,32.15297 -80.16361,74.95488 -99.24665,128.64434c-8.36611,23.53772 -12.9589,47.79348 -14.11094,72.72549c-0.49291,10.66702 -0.5072,10.66391 10.19737,10.66208c7.49758,-0.00128 14.99564,-0.03784 22.49234,0.04465c1.5016,0.01651 3.84386,-0.59983 3.86839,1.87692c0.02225,2.24481 -2.19493,2.24756 -3.79522,2.25845c-9.32939,0.06366 -18.66982,0.27939 -27.98487,-0.09509c-4.45759,-0.17917 -5.81697,1.01083 -5.5085,5.52634c1.91364,28.01053 6.27425,55.47427 16.24413,81.91098c11.71692,31.06921 28.54669,58.93603 50.76453,83.61032c23.86175,26.50012 52.14451,46.92199 84.44877,61.84851c13.78379,6.3689 28.09775,11.28845 42.81076,15.04706c0.62955,0.16089 1.20539,0.53198 2.09024,1.04382c-4.40524,0.23877 -9.09451,0.23877 -14.24988,0.23877z" fill="#ffffff"/>
  <path id="svg_2" d="m451.46612,593c3.61496,-2.40949 8.30918,-3.00378 12.73401,-4.3559c48.4405,-14.80169 89.24299,-41.43774 121.9856,-79.94796c27.19415,-31.98444 45.586,-68.57019 54.88599,-109.71936c3.65637,-16.17798 5.46746,-32.43927 6.00567,-48.94312c0.14545,-4.46112 -1.24115,-6.31888 -5.93976,-6.14801c-7.98809,0.2905 -15.99475,0.07492 -23.99365,0.05936c-1.33191,-0.0026 -2.67596,0.02978 -3.99206,-0.13382c-1.33722,-0.16626 -2.84552,-0.52832 -2.79316,-2.24954c0.05628,-1.84974 1.67847,-1.81147 2.98658,-1.82749c4.33209,-0.0531 8.66516,-0.03525 12.9978,-0.03811c6.16583,-0.00412 12.34186,0.21475 18.49432,-0.07282c4.81183,-0.22488 6.62793,1.71667 6.45771,6.4154c-0.60334,16.65107 -1.92878,33.17063 -5.46314,49.53739c-6.42676,29.76037 -17.33063,57.66586 -33.33221,83.54489c-19.90857,32.19769 -45.62458,58.82465 -76.97266,80.08612c-20.83447,14.13074 -43.22717,24.90619 -67.2308,32.40448c-0.6236,0.19476 -1.18039,0.60333 -2.03235,1.15033c-4.95325,0.23816 -9.64252,0.23816 -14.79789,0.23816z" fill="#ffffff"/>
  <path id="svg_3" d="m387.41666,593c0.91943,-7.75726 -0.08368,-15.57703 0.20269,-23.36243c0.04883,-1.32812 -0.02371,-2.66156 0.04996,-3.98755c0.07425,-1.33599 0.15576,-2.88507 1.98868,-2.85565c1.70355,0.02716 2.10846,1.52887 2.19266,2.85108c0.17923,2.81579 0.20492,5.64435 0.2098,8.46777c0.01038,5.98309 -0.03283,11.96625 -0.05728,18.41809c-1.39206,0.46869 -2.78097,0.46869 -4.58651,0.46869z" fill="#ffffff"/>
  <path id="svg_4" d="m342.64362,360.64465c3.00619,-2.66833 5.53427,-5.39444 8.87249,-7.02722c3.39322,-1.6596 3.50461,-3.51257 1.48252,-6.66623c-5.59281,-8.72244 -9.06165,-18.01931 -7.31079,-28.7861c1.85812,-11.42676 11.15625,-22.43158 22.35339,-25.14905c13.40906,-3.25424 25.60501,-1.56097 34.68146,10.06739c9.02194,11.5585 5.22293,31.11315 -7.84082,41.45733c-4.42209,3.50156 -9.22864,6.43921 -14.88944,9.5531c9.55469,11.95352 19.16992,22.97232 29.21323,33.59699c3.12481,-1.88956 3.71515,-4.633 4.74054,-7.00257c3.31915,-7.6705 5.75079,-15.62545 6.79501,-23.94137c0.45133,-3.59415 2.08795,-5.06192 5.88214,-5.10431c12.16812,-0.13583 12.2551,-0.25336 9.69464,11.48205c-2.53451,11.61655 -6.21569,22.85346 -13.06524,32.71454c-2.27591,3.27655 -1.98011,5.55185 0.66565,8.24906c4.43158,4.51785 8.67871,9.21817 12.95205,13.88876c1.09857,1.20071 2.51041,2.24506 2.7165,4.06149c-6.95578,3.55646 -19.93574,1.41053 -24.86905,-4.10031c-5.77655,-6.45276 -5.79999,-6.48764 -12.75943,-1.82339c-14.18161,9.50445 -29.56104,11.52685 -45.83027,7.09244c-16.74533,-4.56415 -27.70681,-22.38614 -25.04718,-39.4852c1.38858,-8.92765 4.96729,-16.48917 11.5626,-23.0774m48.64437,46.21402c2.70228,-1.62066 5.44471,-3.19784 6.91922,-6.29757c-1.49774,-2.8711 -3.69653,-5.12873 -5.80422,-7.45658c-7.58954,-8.38232 -15.24265,-16.70825 -22.74552,-25.16748c-6.68222,-7.53393 -6.70499,-7.59997 -13.8002,-0.06787c-12.85187,13.64322 -9.327,34.1138 7.47864,41.60349c9.29474,4.14236 18.53442,2.46923 27.95208,-2.61399m-0.42263,-82.63461c0.07443,-0.49292 0.16238,-0.98422 0.22137,-1.479c1.17352,-9.84449 -3.90866,-17.34537 -12.42114,-18.33768c-8.51038,-0.99201 -15.35904,5.23361 -16.56015,14.97494c-1.04563,8.47992 2.2655,15.59339 6.87192,22.31296c1.17352,1.71185 2.67953,2.5007 4.66485,1.25986c7.22885,-4.5181 14.39734,-9.09912 17.22315,-18.73108z" fill="#ff0000"/>
  <path id="svg_5" d="m297.77216,410.79636c-10.29603,8.85492 -22.57364,11.24505 -35.12275,12.01657c-21.12698,1.29892 -42.30459,0.29046 -63.45843,0.55926c-3.05484,0.03879 -4.19303,-1.43075 -4.18283,-4.23761c0.00906,-2.4989 -0.00298,-4.99783 -0.00283,-7.49676c0.003,-47.14832 0.00409,-94.29666 0.01494,-141.44498c0.00072,-3.16483 0.03679,-6.33081 0.12999,-9.49408c0.06462,-2.19421 0.71372,-4.00009 3.41751,-3.93881c23.44912,0.53164 47.01684,-1.94603 70.32915,1.9118c29.75754,4.92447 43.47098,36.44089 27.27246,62.01078c-4.25454,6.71591 -10.7482,10.73831 -19.13421,14.9049c21.93185,6.36975 33.79861,19.72003 33.77182,42.04352c-0.01517,12.6135 -2.99823,24.09046 -13.03482,33.16541m-37.95569,-69.95108c-16.12404,-1.26337 -32.28111,-0.13337 -48.40865,-0.69031c-4.99295,-0.17246 -6.69197,1.34573 -6.61699,6.45642c0.2589,17.64416 0.08649,35.29468 0.08274,52.94275c-0.00106,4.91849 -1.02204,9.87231 0.39375,15.23684c11.89715,0 23.69093,-0.0324 35.48444,0.00925c11.48403,0.04056 22.96046,0.16043 34.32081,-2.01767c8.19769,-1.57174 14.8801,-5.41632 19.92532,-12.1784c6.47608,-8.67987 6.36551,-18.65448 5.88675,-28.69303c-0.43933,-9.21173 -4.47113,-16.58908 -11.98562,-21.97302c-8.41886,-6.03189 -18.18973,-7.86212 -29.08255,-9.09283m-3.67636,-75.51493c-15.47858,-0.10068 -30.95708,-0.22293 -46.43581,-0.27972c-2.44411,-0.00894 -5.08994,-0.39179 -5.05337,3.625c0.18026,19.79748 0.24648,39.59646 0.22612,59.3948c-0.00385,3.74531 1.61788,4.88633 5.15244,4.84379c13.14826,-0.15824 26.3016,0.01934 39.44727,-0.2313c7.6754,-0.14633 15.28264,-1.3808 22.48204,-4.13748c10.40518,-3.98419 17.76288,-10.99249 20.30658,-22.21036c1.03925,-4.58325 0.79785,-9.28622 0.45477,-13.92941c-0.58026,-7.85355 -3.89447,-14.29044 -10.2489,-19.14264c-7.52954,-5.74948 -16.54797,-6.52383 -26.33114,-7.93268z" fill="#ffffff"/>
  <path id="svg_6" d="m560.99365,265.91473c12.59699,9.76819 16.06903,22.85077 14.57691,37.55008c-1.55353,15.30545 -10.39289,25.4943 -25.01166,31.88327c4.74829,2.03861 8.73059,3.50751 12.49518,5.40766c13.82696,6.97891 20.12518,18.75644 21.11346,33.79626c0.94415,14.36728 -2.62811,27.05112 -13.8244,36.87085c-7.72955,6.77921 -17.22028,9.46112 -27.01929,10.59857c-23.72552,2.75388 -47.58075,0.83869 -71.37469,1.32755c-2.47278,0.05081 -3.73889,-1.047 -3.80164,-3.51553c-0.02536,-0.9986 -0.03344,-1.9979 -0.03366,-2.99686c-0.00863,-42.30185 -0.04556,-84.60376 0.00024,-126.90555c0.01047,-9.65433 0.38996,-19.30804 0.42145,-28.96262c0.00931,-2.84881 0.67807,-4.34588 3.8711,-4.27899c21.79211,0.45691 43.6246,-1.11763 65.37741,1.16175c8.19482,0.85864 16.01452,3.08224 23.20959,8.06356m-32.88678,74.49448c-15.15551,-0.04889 -30.31195,-0.0239 -45.46606,-0.19809c-3.83023,-0.04401 -5.32404,1.28253 -5.30377,5.21777c0.11145,21.64814 0.082,43.29749 -0.02249,64.9458c-0.01557,3.22095 1.08831,4.49186 4.33914,4.41874c19.79968,-0.44559 39.62146,0.8413 59.40838,-0.92935c14.04694,-1.25705 25.47119,-6.2901 31.06012,-20.37604c2.25678,-5.68787 2.65491,-11.58521 2.59552,-17.63101c-0.14093,-14.35596 -7.06866,-24.75882 -20.36023,-30.20923c-8.11761,-3.32877 -16.71771,-4.25937 -26.25061,-5.23859m32.93409,-61.87997c-4.77338,-6.29865 -11.32874,-9.6828 -18.88886,-11.1789c-20.28235,-4.01373 -40.81522,-1.69003 -61.23529,-2.24505c-3.82736,-0.10407 -3.54047,2.67221 -3.53952,5.20355c0.00711,19.14306 0.11413,38.28698 -0.04822,57.42859c-0.03424,4.03961 1.49405,5.21432 5.27136,5.1669c12.64926,-0.15876 25.30564,0.08761 37.95053,-0.20188c8.82959,-0.20218 17.60993,-1.26831 25.87378,-4.75219c9.02118,-3.80313 15.5683,-9.87873 18.56562,-19.55515c3.21154,-10.36798 1.73425,-20.00299 -3.9494,-29.86587z" fill="#ffffff"/>
  <path id="svg_7" d="m394.88995,95.65842c0.50238,-8.72315 1.29035,-16.96691 2.92359,-25.23712c3.17175,0.89325 2.52902,2.69036 2.43069,3.99711c-0.38656,5.13725 -0.64789,10.31654 -1.56341,15.37013c-0.63071,3.4813 0.26434,4.74494 3.68857,5.34012c7.53018,1.30882 7.9074,1.26356 9.2991,-5.94646c0.849,-4.39816 1.53628,-8.83091 2.16949,-13.26621c0.44278,-3.10161 1.81766,-4.22613 5.09094,-3.63048c5.11567,0.93093 10.20023,2.07779 11.73737,7.74085c1.72336,6.34909 1.07718,12.58259 -3.74438,17.7211c-2.05411,2.18916 -4.69855,3.37598 -7.62592,3.07487c-7.25964,-0.74671 -14.49347,-1.74954 -21.73157,-2.69575c-1.19946,-0.1568 -2.18808,-0.77771 -2.67447,-2.46816m20.05701,-5.44935c-1.25476,6.09055 1.2002,8.28247 7.12765,6.36397c4.11704,-1.33252 6.64768,-7.4483 5.63083,-13.60816c-0.79925,-4.84185 -3.695,-6.79647 -10.14892,-6.5588c-0.78824,4.26527 -1.594,8.62545 -2.60956,13.80299z" fill="#ffffff"/>
  <path id="svg_8" d="m446.78009,103.53931c0.00321,-4.87335 0.00321,-9.30126 0.00321,-14.76158c-3.98789,4.57542 -5.47513,9.39583 -8.19895,13.44265c-0.64725,0.96157 -1.08111,2.18575 -2.56357,1.90715c-1.36795,-0.25708 -1.98807,-1.40708 -1.94137,-2.56989c0.3323,-8.27665 0.7662,-16.54941 1.2344,-24.81964c0.0174,-0.30728 0.72122,-0.57569 1.70218,-1.30776c2.48703,6.29469 0.1004,12.66412 1.61887,19.51777c2.66668,-4.84941 4.99298,-9.1178 7.36041,-13.36322c0.77231,-1.3849 1.27344,-3.54367 3.45718,-2.74559c2.00882,0.73416 1.2526,2.68712 1.21573,4.33837c-0.11084,4.96499 -0.03994,9.93402 -0.03994,15.49426c4.30026,-5.39858 6.02746,-12.11563 10.30322,-16.88732c2.26037,1.13205 1.97976,2.31434 1.40371,3.35688c-3.69439,6.68604 -7.27325,13.44625 -11.25821,19.95677c-1.81472,2.9649 -3.70934,2.54879 -4.29687,-1.55885z" fill="#ffffff"/>
  <path id="svg_9" d="m330.90008,96.7644c-2.73086,-8.03822 -5.22662,-15.79239 -7.68417,-23.55864c-0.18936,-0.59847 -0.10992,-1.282 0.54538,-2.23381c5.5156,4.21881 4.20154,11.7301 8.19949,17.52008c0.94437,-4.94375 1.82084,-9.48042 2.67356,-14.02152c0.332,-1.76821 0.2478,-4.11447 2.49997,-4.33515c2.54663,-0.24954 2.34985,2.40806 2.8713,3.98047c1.4488,4.36874 2.68015,8.80959 4.28571,14.18776c2.69449,-6.96781 2.12842,-13.72899 5.21289,-19.39957c2.43753,0.82633 1.95261,2.3618 1.74045,3.55661c-1.22049,6.87358 -2.54639,13.72849 -3.84644,20.58784c-0.27117,1.43075 -0.18017,3.28471 -2.28949,3.25424c-1.94922,-0.02816 -2.05709,-1.80801 -2.53353,-3.21348c-1.53,-4.51333 -3.11915,-9.0066 -5.64603,-13.43851c-0.84461,4.86421 -1.6547,9.73482 -2.55249,14.58919c-0.31625,1.71022 -0.23557,4.09029 -3.4766,2.52449z" fill="#ffffff"/>
  <path id="svg_10" d="m303.74457,468.84094c-7.14453,-3.14184 -10.17041,-10.67053 -7.99021,-19.03467c1.72254,-6.60836 6.67197,-10.36297 13.07108,-9.91561c5.14236,0.35952 8.50064,3.77999 8.55661,8.73171c-1.25906,0.93934 -2.26572,0.33665 -2.91535,-0.72296c-2.3804,-3.88241 -5.53552,-5.73916 -10.04751,-3.90857c-3.67774,1.49216 -6.34714,6.94483 -5.65512,11.84278c0.43945,3.11038 1.01587,6.38431 3.80847,8.40228c2.26782,1.63873 4.91861,2.07568 7.58405,0.94672c3.43707,-1.45581 3.99899,-4.48508 4.24154,-7.58036c-2.42044,-2.24011 -5.96826,0.22583 -8.34958,-2.9866c3.01981,-3.03814 6.7807,-1.92428 10.01685,-1.47241c2.87289,0.40109 2.12521,3.38132 2.0657,5.41342c-0.09518,3.24847 0.72461,6.60977 -0.85516,10.01935c-4.49536,-1.45557 -8.69046,1.87118 -13.53137,0.26492z" fill="#ffffff"/>
  <path id="svg_11" d="m567.9071,143.80682c-0.30871,7.30661 -3.34747,13.70972 -4.61932,21.26354c5.84589,-3.18263 8.55347,-9.51088 14.17572,-11.79317c1.16113,1.49828 0.87891,2.2612 0.26148,2.88164c-5.03284,5.0574 -10.06598,10.11493 -15.1529,15.11777c-1.13611,1.11732 -2.38434,2.76161 -4.22918,1.3466c-1.67444,-1.28433 -0.73401,-3.01102 -0.28864,-4.58919c1.5564,-5.5143 4.09271,-10.78184 4.56824,-17.37819c-5.60102,3.66822 -8.83563,9.11463 -13.84052,12.23867c-2.11255,-1.78904 -1.13775,-3.07268 -0.07507,-4.14127c5.03766,-5.06548 10.12836,-10.07842 15.22186,-15.08795c1.17609,-1.15673 2.45941,-1.79573 3.97833,0.14155z" fill="#ffffff"/>
  <path id="svg_12" d="m245.95308,463.76477c-3.13121,-6.07458 -3.20648,-11.8168 -0.25494,-17.56662c3.90031,-7.59814 13.64909,-8.6947 19.08863,-2.14975c5.01398,6.03284 4.94452,15.75562 -0.15506,21.70679c-4.71859,5.50662 -13.66607,4.70935 -18.67863,-1.99042m1.40367,-10.04865c0.22998,8.46058 3.91214,12.84684 9.96075,11.86545c4.45066,-0.72207 7.36417,-5.05774 7.39579,-11.00558c0.02926,-5.50571 -3.2352,-10.47247 -7.42786,-11.13611c-3.03461,-0.48029 -5.60556,0.41421 -7.41992,3.01795c-1.35364,1.94256 -2.20305,4.08953 -2.50876,7.25829z" fill="#ffffff"/>
  <path id="svg_13" d="m643.62122,310.87756c0.96563,-0.86532 1.68457,-1.52334 3.08752,-2.80737c-7.27417,0.12503 -13.27362,3.63528 -19.70843,3.12567c-0.75648,-2.52527 0.72485,-2.98532 2.24237,-3.31299c6.4909,-1.40158 12.9801,-2.815 19.49255,-4.1105c1.64209,-0.32663 3.74853,-1.53146 4.74188,0.99014c0.78986,2.00495 -0.91376,2.94251 -2.16608,4.01584c-4.64746,3.98328 -9.28076,7.98309 -14.45269,12.43585c6.94812,0.86069 12.99731,-3.75396 19.58014,-2.18136c-0.44416,2.52566 -2.02405,2.57751 -3.19672,2.85272c-6.1416,1.44159 -12.30273,2.80853 -18.48627,4.0571c-1.68286,0.33981 -3.84564,1.12759 -4.86139,-1.07541c-0.92919,-2.01529 1.03247,-2.92056 2.21357,-3.96878c3.72491,-3.30582 7.50702,-6.54724 11.51355,-10.02091z" fill="#ffffff"/>
  <path id="svg_14" d="m475.76337,115.31676c-1.2572,0.00632 -2.1055,0.09901 -2.91858,-0.03019c-8.16135,-1.29681 -9.29193,-3.05767 -6.54514,-10.66287c1.75137,-4.84897 3.83411,-9.5777 5.61752,-14.41589c1.05463,-2.86111 2.50895,-3.85794 5.66907,-2.79662c7.44956,2.50197 10.68189,5.98259 10.55024,12.07676c-0.16819,7.78425 -4.95908,14.12474 -12.37311,15.82881m5.68829,-22.32836c-4.04767,-2.58649 -6.62961,-1.78299 -8.02154,3.05596c-1.00507,3.4941 -2.44919,6.87812 -3.90128,10.22277c-1.39398,3.21078 0.03586,4.55777 2.94238,5.31171c4.16562,1.08055 7.04151,-0.6748 9.34561,-3.96749c3.40284,-4.86293 3.5029,-9.52991 -0.36517,-14.62295z" fill="#ffffff"/>
  <path id="svg_15" d="m393.42517,458.5296c-2.37149,-2.67441 -5.54736,-2.83911 -8.26193,-4.00494c-4.22406,-1.81424 -6.03342,-5.28629 -4.78479,-9.1243c1.31561,-4.04388 5.33798,-6.23602 10.00088,-5.45038c4.31269,0.72666 6.78705,3.73081 6.6351,8.103c-2.25979,0.99704 -2.82034,-0.86429 -3.68295,-2.20563c-1.59283,-2.47678 -3.9154,-2.95587 -6.53857,-2.2009c-1.79373,0.51627 -2.70652,1.91169 -2.66144,3.77655c0.07071,2.92411 2.18494,3.82999 4.56238,4.45557c0.96228,0.25321 1.91122,0.57141 2.8442,0.91922c4.30079,1.60336 7.11625,4.36978 6.68445,9.2962c-0.32611,3.72007 -2.42456,6.24408 -6.13708,6.8816c-4.58853,0.78802 -9.06854,0.67599 -11.9065,-3.96131c-0.75824,-1.23904 -1.95162,-2.81634 -0.32055,-3.96887c1.72012,-1.21551 2.59051,0.46646 3.40149,1.74655c2.20227,3.47632 5.496,3.61908 8.76352,2.28165c2.87991,-1.1788 3.039,-3.65662 1.40179,-6.54401z" fill="#ffffff"/>
  <path id="svg_16" d="m374.06415,79.44235c0.23004,3.60545 0.18265,6.77329 -0.80329,9.82125c-1.41549,4.37599 -4.44867,7.15201 -9.04303,7.39389c-4.56311,0.24022 -7.85235,-1.95819 -9.69619,-6.37093c-2.17066,-5.19486 -2.30036,-10.31586 -0.23072,-15.51247c1.7045,-4.27984 4.87976,-7.00201 9.47126,-6.7994c4.70623,0.20769 7.98599,3.00677 9.42285,7.64258c0.34375,1.10914 0.55337,2.25986 0.87912,3.82508m-4.71396,-4.01994c-1.59497,-2.56302 -3.67563,-4.46413 -6.90976,-3.73571c-3.07993,0.69368 -4.4075,3.17103 -5.36099,5.99007c-1.17453,3.47263 -1.03705,6.85321 0.22537,10.21955c1.13028,3.01393 2.94333,5.17187 6.56482,4.99453c3.3291,-0.16301 5.03213,-2.1628 5.98508,-5.08076c1.2788,-3.91573 1.36108,-7.81381 -0.50452,-12.38768z" fill="#ffffff"/>
  <path id="svg_17" d="m553.37817,451.49084c-1.79638,-6.3659 0.22602,-10.43835 5.32874,-11.47375c5.67163,-1.15091 10.09521,1.93265 10.95117,7.67572c-2.47449,1.65854 -3.08307,-0.65933 -4.11059,-1.97552c-1.61713,-2.07123 -3.70643,-2.75083 -6.19159,-2.09821c-1.74024,0.45703 -2.90723,1.5668 -3.11921,3.45953c-0.21441,1.91431 0.69068,3.26618 2.36396,3.96885c2.13659,0.89718 4.43579,1.42514 6.52954,2.40234c4.54645,2.12198 6.43365,5.94952 5.17456,10.03628c-1.3736,4.45847 -5.38391,6.47147 -11.34998,5.69721c-4.83105,-0.62702 -7.05517,-3.11972 -7.25415,-8.16846c1.84656,-1.14746 2.72418,0.15225 3.5119,1.469c1.31513,2.19827 3.21387,3.26696 5.76526,3.25515c2.47754,-0.01144 4.80249,-0.48861 5.54914,-3.2091c0.78882,-2.87461 -0.75782,-4.75556 -3.25373,-5.97828c-3.22772,-1.58136 -7.25097,-1.53955 -9.89502,-5.06076z" fill="#ffffff"/>
  <path id="svg_18" d="m531.01929,146.97647c-2.42328,-0.7252 -2.62329,-2.23143 -1.45911,-4.19639c0.84625,-1.42826 1.77637,-2.81014 2.56128,-4.27065c1.53894,-2.86357 0.05243,-4.60155 -2.23993,-6.19589c-2.50189,-1.74005 -3.86151,-0.45314 -5.32343,1.47383c-1.50415,1.98265 -2.32348,4.7879 -5.09539,5.33392c-1.92023,-1.45161 -1.05591,-2.60182 -0.28937,-3.68991c3.91913,-5.56309 7.9292,-11.06356 11.7655,-16.68284c1.64496,-2.40956 3.31189,-3.03819 5.72181,-1.14122c2.21459,1.74321 4.66436,3.22839 6.21386,5.67719c1.77655,2.80768 1.42645,6.1673 -0.89007,7.72692c-5.69629,3.83508 -6.77698,10.55905 -10.87415,15.68422c-0.11304,0.31044 -0.091,0.28082 -0.091,0.28082m8.89599,-21.6828c-1.46295,-2.06318 -3.29132,-3.62807 -5.99481,-4.60688c-1.49109,2.14656 -2.87732,4.14213 -4.34271,6.25166c2.11151,2.32591 4.10657,4.13064 7.04162,3.6202c2.39588,-0.41668 3.66877,-2.11612 3.2959,-5.26498z" fill="#ffffff"/>
  <path id="svg_19" d="m621.41467,214.7045c4.43616,9.01335 2.3067,13.08319 -7.17511,14.00444c-1.65735,0.16103 -2.16735,1.18231 -3.07776,2.09479c-2.77911,2.78561 -5.82928,5.08174 -10.27612,5.06454c-0.08734,-3.45506 2.63782,-3.51047 4.28247,-4.52835c2.07001,-1.28116 3.90173,-2.5488 3.70294,-5.36644c-0.28637,-4.0603 -2.37835,-5.28877 -6.15283,-3.79344c-2.3537,0.93246 -4.44037,2.84515 -7.18689,2.55636c-1.14203,-2.34187 0.55634,-2.91355 1.78412,-3.56422c5.72565,-3.03442 11.55487,-5.87903 17.21655,-9.02632c3.27381,-1.81989 5.26502,-0.92224 6.88263,2.55864m-2.12371,8.81494c0.92559,-5.36331 -0.78699,-8.72109 -4.03065,-7.71292c-1.78509,0.55482 -4.12341,1.07612 -4.54498,3.29402c-0.38495,2.02548 0.86536,3.84634 2.28632,5.21977c1.90149,1.83801 3.91485,1.04178 6.28931,-0.80087z" fill="#ffffff"/>
  <path id="svg_20" d="m627.72681,302.6134c-7.68055,-5.56912 -7.42206,-13.10522 0.30243,-17.76611c4.43133,-2.6738 9.19409,-3.73383 14.34369,-2.6358c3.88287,0.82791 6.83502,2.82742 7.68286,6.87033c0.92193,4.39636 -0.03064,8.41516 -4.07789,10.91574c-5.52111,3.41116 -11.3576,5.59234 -18.25109,2.61584m18.30011,-14.00912c-4.97467,-4.76578 -15.42279,-3.70206 -19.13868,1.92663c-1.78485,2.70353 -1.72344,5.32786 0.4452,7.71399c2.81274,3.09485 8.15252,3.20636 13.94781,0.45969c4.00446,-1.89789 6.45465,-4.6261 4.74567,-10.10031z" fill="#ffffff"/>
  <path id="svg_21" d="m377.60348,71.78018c2.97437,-5.52268 7.24936,-2.79635 10.92881,-2.07271c3.96573,0.77993 5.71103,4.37481 4.50549,7.61512c-1.84344,4.95474 -0.65067,9.70757 -0.80014,14.54808c-0.05237,1.6955 0.52652,3.71912 -1.6568,5.04833c-2.76343,-1.59771 -1.68371,-4.33957 -1.73636,-6.55408c-0.06576,-2.76761 -0.59747,-4.9023 -3.63492,-5.65561c-3.17626,-0.78773 -5.10537,-0.18701 -5.23831,3.65106c-0.09002,2.59921 0.87216,5.61467 -1.68255,7.82486c-2.3339,-2.47715 -2.51239,-10.41287 -0.68522,-24.40505m6.00104,0.58594c-4.30328,0.2371 -3.26953,3.5034 -3.16723,5.95479c0.12301,2.94813 2.67013,2.49479 4.55743,2.53941c2.64417,0.06252 4.62042,-1.06309 4.71173,-3.99573c0.11224,-3.60379 -2.41299,-4.3356 -6.10193,-4.49847z" fill="#ffffff"/>
  <path id="svg_22" d="m604.24658,214.48016c-8.19787,3.63126 -13.89465,2.85045 -16.76843,-2.07274c-3.16565,-5.42323 -0.91864,-11.53243 6.00055,-16.39299c2.07281,-1.45608 4.3642,-2.39596 6.81293,-2.93339c5.00384,-1.09824 9.38397,0.62849 11.62994,4.58742c2.47357,4.36027 1.43225,8.3002 -1.59436,11.93208c-1.6087,1.93044 -3.54138,3.48915 -6.08063,4.87962m-10.044,-1.16293c6.11963,0.33185 10.98407,-1.94434 14.26336,-7.16064c2.87378,-4.57126 0.11206,-9.62066 -5.27417,-9.86515c-4.59912,-0.20875 -10.63482,3.38901 -12.49512,7.64743c-1.64691,3.76984 -1.48791,7.13124 3.50593,9.37836z" fill="#ffffff"/>
  <path id="svg_23" d="m518.979,468.56317c-5.62475,1.44995 -10.52151,0.98221 -13.65622,-3.93033c-3.90408,-6.11825 -3.65237,-12.69952 -0.48709,-19.01767c2.2428,-4.47686 6.34925,-6.13809 11.2735,-5.72134c5.20374,0.44043 8.53839,4.37393 7.51013,9.70651c-4.25763,-3.83499 -8.12719,-9.98465 -14.34292,-3.82849c-3.65512,3.62012 -3.9527,11.70792 -1.06302,16.43832c1.21454,1.98832 3.00262,3.07578 5.23901,3.42304c2.06482,0.32065 3.88416,-0.32007 5.64826,-1.45004c1.6549,-1.06006 1.92273,-4.21323 5.22271,-3.24891c0.57911,3.99085 -2.1361,5.76987 -5.34436,7.62891z" fill="#ffffff"/>
  <path id="svg_24" d="m491.77209,100.87798c3.29319,-6.28436 3.30854,-6.31842 9.49186,-3.53007c2.35556,1.06225 5.12838,1.55293 6.80105,4.68246c-4.55087,2.80841 -7.4483,-2.82407 -11.45733,-2.01889c-1.46097,1.67575 -2.47004,3.68347 -2.79013,5.91037c1.89504,3.33554 7.32446,1.89271 8.34902,6.55009c-2.59509,1.82694 -4.5791,0.03233 -6.43206,-0.96237c-2.95929,-1.58855 -4.79554,-1.27108 -6.26798,2.00403c-1.42349,3.16623 -1.26114,5.15673 2.267,6.67183c2.17438,0.93374 5.23291,1.27319 6.04224,5.35455c-5.54154,-0.34479 -9.49454,-2.9197 -13.18219,-5.74752c-1.55234,-1.19039 -0.23035,-3.15982 0.4292,-4.60865c2.13308,-4.68582 4.40023,-9.31062 6.74932,-14.30583z" fill="#ffffff"/>
  <path id="svg_25" d="m530.98694,147.02161c6.97082,-4.46869 13.94232,-8.96802 20.94153,-13.42386c1.33166,-0.84772 2.70227,-2.34482 4.3977,-0.71082c1.41956,1.36817 0.34131,2.77117 -0.20691,4.11023c-2.5769,6.29508 -5.15008,12.59184 -7.77435,18.86722c-0.65436,1.56461 -0.83264,3.76926 -3.52338,3.28087c-1.71801,-2.09891 0.03858,-3.78821 0.73566,-5.47071c0.96692,-2.33375 1.42438,-4.21244 -0.93951,-6.15589c-2.36255,-1.94233 -4.38404,-2.37969 -7.17145,-0.81511c-1.78906,1.00419 -3.62964,4.28608 -6.32276,0.61354c-0.10418,-0.34061 -0.12622,-0.31099 -0.13653,-0.29547m19.97284,-7.73146c-2.84253,-0.63984 -4.18,1.54376 -5.9953,2.90544c0.65838,1.87045 1.49713,3.11242 3.89349,2.91841c0.67755,-1.69258 1.39728,-3.4905 2.10181,-5.82385z" fill="#ffffff"/>
  <path id="svg_26" d="m573.41589,181.41824c3.3863,-1.84582 3.76459,-4.31228 2.48181,-7.34832c-0.84313,-1.99556 -1.37603,-4.07456 -1.27392,-6.29366c0.16955,-3.68468 2.1604,-5.89381 5.61749,-6.64041c4.26837,-0.92178 7.0976,1.3551 8.77094,4.93851c1.50171,3.21573 0.61017,6.01168 -2.41199,7.95025c-1.60114,-0.8099 -1.46973,-1.94972 -1.11621,-3.11203c0.7641,-2.51256 0.34289,-4.60798 -2.06372,-6.00616c-1.26428,-0.73447 -2.56561,-0.75961 -3.70862,0.21666c-2.17664,1.85908 -1.5882,4.1206 -0.8692,6.4143c0.49554,1.58086 1.08691,3.17455 1.26538,4.80307c0.38171,3.48243 -1.11054,6.1471 -4.18164,7.81832c-3.29608,1.79364 -6.46765,1.38893 -9.20917,-1.10704c-2.62671,-2.39137 -3.94781,-5.37393 -2.7597,-8.95377c0.51428,-1.54954 1.34533,-3.03816 3.77319,-2.98674c0.26971,4.28111 -2.7995,10.45773 5.68536,10.30702z" fill="#ffffff"/>
  <path id="svg_27" d="m631.96082,253.95901c-5.73609,4.65772 -11.19611,9.0886 -16.63483,13.50226c-2.35931,-2.55832 -0.72278,-3.67611 0.52991,-4.5964c2.90875,-2.1369 4.789,-4.28333 3.05218,-8.3252c-1.68463,-3.92033 -4.48523,-3.14744 -7.47125,-2.67106c-1.5008,0.23941 -3.03961,0.3836 -3.92798,-2.24004c3.57947,-1.72031 7.62115,-0.87006 11.30048,-1.58946c4.2005,-0.82132 8.55877,-0.90134 12.85778,-1.12166c1.70325,-0.08726 3.95496,-0.67908 4.64039,1.72623c0.56066,1.96766 -1.16559,2.89447 -2.47596,3.8943c-0.52789,0.40282 -1.06286,0.7964 -1.87072,1.42103m-9.12165,1.10822c3.54676,1.16251 4.24195,-1.91029 5.73108,-3.8374c-2.06201,1.02835 -7.13409,-3.36606 -5.73108,3.8374z" fill="#ffffff"/>
  <path id="svg_28" d="m599.52966,179.58444c3.13318,5.36377 2.6781,8.48721 -1.42071,11.48058c-4.48865,3.27807 -8.11133,3.02086 -11.58808,-1.68198c-2.52508,-3.41554 -4.53112,-2.9317 -7.31091,-0.67375c-1.54095,1.25168 -2.93933,3.40886 -5.60919,2.19708c-0.82947,-2.53842 1.38568,-3.11783 2.68884,-4.0946c4.25592,-3.18996 8.63666,-6.21268 12.91644,-9.37152c5.89118,-4.34821 5.87043,-4.37632 10.32361,2.14419m-10.73211,7.2078c2.26593,3.34651 4.95868,3.66194 7.76757,0.8184c2.42383,-2.45372 1.34998,-5.62466 -3.08483,-9.10049c-1.72638,2.56306 -7.51581,2.18963 -4.68274,8.28209z" fill="#ffffff"/>
  <path id="svg_29" d="m437.08588,444.60339c-1.82007,3.58954 -0.84586,7.12272 -1.03202,10.56497c-0.16131,2.98273 0.04245,5.98395 -0.07309,8.97086c-0.0668,1.72751 0.34888,4.2825 -2.09375,4.37482c-2.66513,0.10071 -2.08111,-2.52204 -2.11367,-4.19724c-0.09687,-4.98352 -0.22239,-9.97995 0.03018,-14.9527c0.21426,-4.21871 -1.21204,-6.31076 -5.64762,-5.88262c-1.28408,0.12393 -2.88073,0.24118 -2.9627,-1.70368c-0.0506,-1.19992 0.99533,-1.79565 2.00338,-1.8035c5.64087,-0.044 11.28388,-0.03247 16.92301,0.09675c1.06527,0.02435 1.67511,0.97186 1.52322,2.36401c-1.53088,2.11127 -4.38672,0.56598 -6.55694,2.16833z" fill="#ffffff"/>
  <path id="svg_30" d="m211.80025,469.19666c-12.384,-0.19929 -10.90903,1.22003 -11.04029,-10.75998c-0.05264,-4.80576 -0.02548,-9.61301 0.0259,-14.41892c0.01556,-1.45474 -0.1479,-3.45047 1.75796,-3.59866c2.25426,-0.17527 2.4179,1.92929 2.43334,3.5722c0.06506,6.92957 0.02754,13.86011 0.02754,21.0011c4.20663,1.34229 9.00926,-1.44617 12.92172,2.05008c-1.3199,2.76239 -3.68904,1.95029 -6.12617,2.15418z" fill="#ffffff"/>
  <path id="svg_31" d="m632.255,237.66081c1.26777,3.1192 1.26777,3.1192 -0.34167,5.09337c-0.2951,-0.09557 -0.79114,-0.1132 -0.86822,-0.30189c-2.15803,-5.28591 -5.35743,-5.50429 -9.98066,-2.71384c-3.65326,2.205 -7.82818,3.54989 -11.78454,5.24622c-1.33087,0.57063 -2.72553,1.483 -4.14466,-0.41062c0.51618,-2.23576 2.76191,-2.44687 4.39051,-3.26016c2.81256,-1.40444 5.77221,-2.51282 8.59356,-3.90114c4.04224,-1.98901 9.8144,-2.92616 6.52179,-9.84914c-0.09619,-0.20222 0.51074,-0.73883 1.25476,-1.7538c3.74927,3.13672 3.95508,7.94829 6.35913,11.851z" fill="#ffffff"/>
  <path id="svg_32" d="m643.05798,272.97995c-0.27752,-0.181 -0.7268,-0.30551 -0.80767,-0.55124c-2.41877,-7.353 -7.30909,-5.52521 -12.38917,-3.45508c-3.06488,1.24893 -6.22302,2.2771 -9.36859,3.3158c-1.49487,0.49365 -3.05255,1.5657 -4.60144,0.09039c-0.50348,-1.89371 0.8479,-2.26196 2.12598,-2.70837c4.84918,-1.69379 9.63416,-3.60855 14.5622,-5.0271c3.78283,-1.08887 6.12975,-2.48898 4.04693,-6.85361c-0.23145,-0.48502 0.05835,-1.21887 0.10901,-1.87151c3.95196,0.77614 7.89069,10.82781 6.4809,16.76879c-0.19684,0.30966 -0.15815,0.29193 -0.15815,0.29193z" fill="#ffffff"/>
  <path id="svg_33" d="m515.94989,125.91226c-1.97143,2.81284 -2.60565,6.33985 -6.01682,7.65456c-1.78482,-2.48985 -0.09817,-3.89989 0.72825,-5.34687c2.38403,-4.17417 4.79412,-8.34352 7.42785,-12.36149c1.7724,-2.70383 2.02722,-4.76069 -1.13769,-6.51711c-1.15723,-0.6422 -2.3595,-1.70462 -1.10327,-3.17144c0.9956,-1.16252 2.20922,-0.35347 3.10455,0.32507c3.88531,2.94457 8.91577,4.27942 12.10181,8.19238c-1.27631,2.72217 -2.87568,1.53736 -4.18323,0.68163c-2.66852,-1.74634 -4.1745,-0.70491 -5.53565,1.75324c-1.60455,2.89777 -3.45324,5.66032 -5.3858,8.79003z" fill="#ffffff"/>
  <path id="svg_34" d="m350.9137,447.17737c-0.17649,7.04959 -0.33728,13.6546 -0.5683,20.2572c-0.01288,0.36765 -0.6066,0.71494 -0.92624,1.0676c-3.0347,-2.38974 -3.61768,-22.85648 -0.75797,-28.18262c2.93283,1.41333 1.93976,4.16058 2.25251,6.85782z" fill="#ffffff"/>
  <path id="svg_35" d="m471.3931,440.96448c2.20471,-0.94651 2.75225,0.35952 2.75372,1.75247c0.00855,8.12433 -0.07465,16.24905 -0.20606,24.37237c-0.00826,0.51035 -0.68682,1.00983 -1.07546,1.5445c-2.40906,-2.42624 -3.20899,-16.20389 -1.4722,-27.66934z" fill="#ffffff"/>
  <path id="svg_36" d="m464.64697,87.77482c0.57752,-1.77021 0.9155,-3.29756 2.78766,-3.50689c1.38461,2.77946 -4.76468,22.81311 -8.65863,25.81717c-0.03616,-7.76486 3.33225,-14.74718 5.87097,-22.31028z" fill="#ffffff"/>
  <path id="svg_37" d="m643.00207,273.00973c2.01331,0.2905 3.75623,1.93198 1.56965,3.0069c-7.79212,3.83032 -16.34058,5.45175 -24.91889,6.99167c6.453,-6.07321 15.51648,-5.74872 23.11585,-9.81555c0.2893,-0.2128 0.25061,-0.19507 0.23339,-0.18302z" fill="#ffffff"/>
 </g>
</svg>