<?xml version="1.0" encoding="utf-8"?>
<svg viewBox="-7.407 -1.852 500 500" xmlns="http://www.w3.org/2000/svg">
  <path opacity="1.000000" stroke="none" d="M 211.553 369.411 C 208.111 368.115 204.913 366.815 201.711 365.523 C 175.063 354.777 153.938 336.884 137.998 312.44 C 127.233 295.931 120.322 277.75 117.215 258.09 C 112.602 228.896 116.269 200.815 128.576 174.103 C 139.809 149.72 156.619 130.333 178.685 115.854 C 182.674 113.236 182.679 113.254 180.682 108.787 C 179.631 106.438 178.592 104.083 177.571 101.72 C 177.477 101.503 177.558 101.204 177.558 100.401 C 187.311 100.814 196.932 102.251 207.319 103.046 C 201.807 112.1 195.92 120.133 190.137 128.841 C 187.243 124.517 186.146 119.647 183.456 115.498 C 180.703 116.499 178.531 118.315 176.293 119.9 C 151.957 137.141 134.74 160.091 124.848 188.877 C 120.512 201.498 118.131 214.504 117.534 227.873 C 117.279 233.592 117.271 233.59 122.82 233.589 C 126.706 233.589 130.593 233.569 134.479 233.613 C 135.257 233.622 136.471 233.291 136.485 234.62 C 136.496 235.823 135.346 235.825 134.516 235.831 C 129.68 235.864 124.839 235.98 120.01 235.779 C 117.7 235.684 116.995 236.321 117.156 238.743 C 118.146 253.761 120.407 268.487 125.576 282.662 C 131.649 299.321 140.373 314.263 151.89 327.493 C 164.258 341.702 178.919 352.652 195.664 360.655 C 202.809 364.07 210.229 366.708 217.855 368.723 C 218.182 368.81 218.48 369.009 218.939 369.283 C 216.656 369.411 214.225 369.411 211.553 369.411 Z" style="fill: rgb(27, 24, 103);"/>
  <path opacity="1.000000" stroke="none" d="M 283.086 369.411 C 284.96 368.119 287.393 367.8 289.687 367.076 C 314.796 359.138 335.946 344.857 352.918 324.208 C 367.015 307.059 376.549 287.442 381.37 265.379 C 383.265 256.704 384.204 247.984 384.483 239.136 C 384.558 236.743 383.839 235.747 381.403 235.84 C 377.263 235.994 373.113 235.879 368.966 235.871 C 368.276 235.869 367.579 235.887 366.897 235.799 C 366.204 235.71 365.421 235.516 365.449 234.593 C 365.479 233.602 366.318 233.622 366.997 233.613 C 369.243 233.585 371.489 233.594 373.735 233.593 C 376.93 233.59 380.132 233.707 383.321 233.554 C 385.816 233.433 386.757 234.474 386.668 236.994 C 386.356 245.921 385.669 254.779 383.837 263.555 C 380.505 279.512 374.853 294.474 366.559 308.35 C 356.239 325.614 342.909 339.891 326.659 351.291 C 315.86 358.868 304.253 364.646 291.809 368.667 C 291.487 368.771 291.198 368.99 290.756 369.284 C 288.189 369.411 285.758 369.411 283.086 369.411 Z" style="fill: rgb(27, 24, 103);"/>
  <path opacity="1.000000" stroke="none" d="M 249.885 369.411 C 250.362 365.252 249.841 361.059 249.99 356.884 C 250.015 356.173 249.978 355.457 250.016 354.746 C 250.054 354.03 250.096 353.2 251.047 353.215 C 251.93 353.229 252.14 354.035 252.183 354.743 C 252.277 356.254 252.289 357.77 252.292 359.284 C 252.298 362.492 252.275 365.7 252.263 369.159 C 251.541 369.411 250.821 369.411 249.885 369.411 Z" style="fill: rgb(27, 24, 103);"/>
  <path opacity="1.000000" stroke="none" d="M 226.677 244.825 C 228.234 243.394 229.546 241.932 231.276 241.057 C 233.035 240.168 233.092 239.174 232.044 237.483 C 229.145 232.805 227.346 227.821 228.255 222.048 C 229.218 215.921 234.038 210.021 239.842 208.563 C 246.792 206.819 253.115 207.726 257.82 213.961 C 262.495 220.159 260.526 230.643 253.755 236.191 C 251.462 238.068 248.971 239.643 246.037 241.313 C 250.99 247.722 255.973 253.63 261.179 259.327 C 262.8 258.313 263.106 256.843 263.637 255.572 C 265.358 251.459 266.618 247.194 267.159 242.735 C 267.393 240.808 268.241 240.021 270.209 239.998 C 276.516 239.926 276.56 239.862 275.234 246.154 C 273.919 252.383 272.012 258.409 268.461 263.696 C 267.281 265.453 267.434 266.673 268.806 268.119 C 271.103 270.541 273.304 273.061 275.52 275.565 C 276.089 276.21 276.821 276.77 276.928 277.743 C 273.323 279.651 266.594 278.5 264.037 275.545 C 261.043 272.085 261.03 272.067 257.423 274.567 C 250.072 279.664 242.1 280.748 233.667 278.37 C 224.987 275.923 219.304 266.368 220.683 257.199 C 221.403 252.412 223.258 248.358 226.677 244.825 M 251.892 269.604 C 253.292 268.735 254.714 267.889 255.479 266.228 C 254.702 264.688 253.563 263.478 252.47 262.23 C 248.536 257.735 244.569 253.271 240.68 248.735 C 237.215 244.696 237.204 244.66 233.526 248.699 C 226.864 256.014 228.692 266.99 237.402 271.006 C 242.221 273.227 247.011 272.33 251.892 269.604 M 251.673 225.297 C 251.712 225.033 251.757 224.769 251.788 224.504 C 252.396 219.225 249.761 215.204 245.349 214.672 C 240.938 214.14 237.388 217.477 236.766 222.7 C 236.223 227.247 237.94 231.061 240.328 234.665 C 240.936 235.583 241.716 236.005 242.745 235.34 C 246.492 232.918 250.208 230.462 251.673 225.297 Z" style="fill: rgb(228, 9, 9);"/>
  <path opacity="1.000000" stroke="none" d="M 203.417 271.716 C 198.08 276.463 191.716 277.745 185.211 278.159 C 174.26 278.856 163.282 278.315 152.317 278.458 C 150.733 278.479 150.143 277.691 150.149 276.187 C 150.153 274.847 150.148 273.507 150.148 272.167 C 150.149 246.886 150.149 221.606 150.155 196.326 C 150.156 194.629 150.173 192.932 150.222 191.235 C 150.255 190.059 150.593 189.09 151.994 189.123 C 164.15 189.408 176.366 188.08 188.45 190.149 C 203.874 192.789 210.983 209.688 202.587 223.398 C 200.381 226.999 197.015 229.156 192.668 231.389 C 204.037 234.805 210.189 241.964 210.174 253.933 C 210.166 260.696 208.619 266.85 203.417 271.716 M 183.742 234.209 C 175.385 233.532 167.01 234.137 158.65 233.839 C 156.061 233.746 155.181 234.56 155.22 237.3 C 155.354 246.761 155.264 256.225 155.263 265.688 C 155.263 268.325 154.733 270.981 155.467 273.858 C 161.634 273.858 167.747 273.841 173.86 273.863 C 179.813 273.884 185.762 273.949 191.65 272.781 C 195.9 271.938 199.364 269.877 201.979 266.251 C 205.336 261.597 205.279 256.249 205.031 250.866 C 204.803 245.926 202.713 241.971 198.818 239.085 C 194.454 235.85 189.389 234.869 183.742 234.209 M 181.837 193.719 C 173.814 193.665 165.79 193.599 157.766 193.569 C 156.499 193.564 155.129 193.359 155.147 195.513 C 155.241 206.128 155.275 216.743 155.264 227.36 C 155.263 229.368 156.103 229.979 157.935 229.956 C 164.75 229.872 171.569 229.967 178.383 229.832 C 182.361 229.754 186.305 229.092 190.037 227.614 C 195.431 225.477 199.244 221.72 200.563 215.705 C 201.102 213.247 200.976 210.726 200.799 208.236 C 200.497 204.025 198.78 200.574 195.486 197.972 C 191.584 194.89 186.908 194.474 181.837 193.719 Z" style="fill: rgb(27, 24, 103);"/>
  <path opacity="1.000000" stroke="none" d="M 339.861 194.032 C 346.389 199.27 348.19 206.284 347.416 214.166 C 346.61 222.372 342.029 227.836 334.452 231.261 C 336.913 232.354 338.976 233.142 340.928 234.161 C 348.096 237.903 351.36 244.218 351.873 252.282 C 352.362 259.985 350.51 266.786 344.706 272.051 C 340.7 275.687 335.781 277.124 330.701 277.735 C 318.403 279.211 306.037 278.184 293.704 278.446 C 292.421 278.473 291.765 277.885 291.733 276.562 C 291.719 276.026 291.715 275.49 291.715 274.955 C 291.711 252.273 291.692 229.591 291.715 206.909 C 291.721 201.733 291.918 196.557 291.934 191.38 C 291.939 189.853 292.285 189.05 293.94 189.085 C 305.236 189.331 316.554 188.486 327.83 189.708 C 332.077 190.169 336.13 191.361 339.861 194.032 M 322.813 233.975 C 314.957 233.949 307.1 233.962 299.245 233.869 C 297.26 233.845 296.486 234.557 296.496 236.667 C 296.553 248.274 296.539 259.882 296.485 271.489 C 296.477 273.217 297.049 273.898 298.734 273.859 C 308.997 273.62 319.272 274.31 329.528 273.361 C 336.81 272.686 342.731 269.988 345.629 262.435 C 346.799 259.385 347.006 256.223 346.974 252.981 C 346.901 245.285 343.31 239.707 336.42 236.784 C 332.212 235 327.754 234.5 322.813 233.975 M 339.885 200.796 C 337.411 197.419 334.013 195.604 330.094 194.802 C 319.58 192.649 308.937 193.896 298.352 193.598 C 296.367 193.542 296.517 195.031 296.517 196.388 C 296.52 206.653 296.577 216.917 296.492 227.18 C 296.474 229.346 297.266 229.976 299.224 229.951 C 305.781 229.866 312.342 229.998 318.897 229.843 C 323.473 229.734 328.025 229.163 332.308 227.295 C 336.984 225.256 340.378 221.998 341.932 216.81 C 343.597 211.251 342.831 206.084 339.885 200.796 Z" style="fill: rgb(27, 24, 103);"/>
  <path opacity="1.000000" stroke="none" d="M 253.759 102.743 C 254.019 98.066 254.428 93.645 255.274 89.211 C 256.918 89.69 256.586 90.654 256.535 91.355 C 256.334 94.109 256.198 96.885 255.724 99.595 C 255.397 101.462 255.861 102.139 257.636 102.459 C 261.539 103.161 261.735 103.136 262.456 99.27 C 262.896 96.913 263.253 94.536 263.581 92.158 C 263.811 90.495 264.523 89.891 266.22 90.211 C 268.871 90.709 271.507 91.325 272.304 94.361 C 273.197 97.765 272.863 101.108 270.363 103.863 C 269.299 105.037 267.927 105.674 266.41 105.512 C 262.648 105.111 258.898 104.573 255.146 104.067 C 254.524 103.982 254.011 103.649 253.759 102.743 M 264.156 99.821 C 263.505 103.086 264.778 104.262 267.851 103.233 C 269.985 102.519 271.296 99.239 270.77 95.936 C 270.355 93.341 268.854 92.292 265.509 92.42 C 265.099 94.707 264.682 97.045 264.156 99.821 Z" style="fill: rgb(27, 24, 103);"/>
  <path opacity="1.000000" stroke="none" d="M 280.657 106.968 C 280.659 104.356 280.659 101.982 280.659 99.053 C 278.591 101.507 277.82 104.092 276.408 106.261 C 276.073 106.777 275.848 107.433 275.079 107.284 C 274.371 107.146 274.049 106.529 274.073 105.906 C 274.246 101.469 274.47 97.032 274.713 92.598 C 274.722 92.433 275.087 92.29 275.596 91.897 C 276.885 95.272 275.647 98.687 276.435 102.363 C 277.816 99.762 279.023 97.473 280.25 95.197 C 280.65 94.454 280.91 93.297 282.041 93.725 C 283.083 94.118 282.691 95.165 282.672 96.051 C 282.615 98.713 282.651 101.378 282.651 104.358 C 284.88 101.464 285.775 97.862 287.992 95.303 C 289.163 95.911 289.019 96.544 288.72 97.104 C 286.804 100.689 284.95 104.314 282.884 107.804 C 281.943 109.394 280.961 109.171 280.657 106.968 Z" style="fill: rgb(27, 24, 103);"/>
  <path opacity="1.000000" stroke="none" d="M 220.589 103.336 C 219.174 99.026 217.88 94.868 216.607 90.704 C 216.508 90.383 216.549 90.016 216.888 89.506 C 219.748 91.769 219.067 95.796 221.139 98.9 C 221.629 96.249 222.083 93.817 222.525 91.382 C 222.697 90.434 222.653 89.176 223.821 89.057 C 225.142 88.924 225.039 90.349 225.309 91.192 C 226.061 93.535 226.698 95.916 227.53 98.8 C 228.928 95.063 228.634 91.438 230.233 88.397 C 231.497 88.841 231.245 89.664 231.135 90.304 C 230.503 93.99 229.815 97.665 229.142 101.343 C 229 102.111 229.048 103.105 227.954 103.089 C 226.944 103.074 226.888 102.119 226.641 101.365 C 225.848 98.946 225.025 96.536 223.714 94.159 C 223.276 96.767 222.857 99.379 222.391 101.982 C 222.227 102.899 222.269 104.176 220.589 103.336 Z" style="fill: rgb(27, 24, 103);"/>
  <path opacity="1.000000" stroke="none" d="M 206.514 302.838 C 202.81 301.154 201.241 297.117 202.371 292.633 C 203.264 289.089 205.83 287.076 209.147 287.316 C 211.813 287.508 213.553 289.342 213.582 291.997 C 212.929 292.501 212.408 292.178 212.071 291.61 C 210.837 289.528 209.201 288.533 206.863 289.514 C 204.956 290.314 203.573 293.238 203.932 295.864 C 204.159 297.532 204.458 299.287 205.905 300.369 C 207.081 301.248 208.455 301.483 209.836 300.876 C 211.619 300.097 211.91 298.472 212.036 296.813 C 210.781 295.611 208.942 296.933 207.707 295.211 C 209.272 293.582 211.222 294.179 212.9 294.421 C 214.389 294.637 214.002 296.235 213.97 297.324 C 213.921 299.066 214.346 300.868 213.527 302.696 C 211.197 301.916 209.022 303.7 206.514 302.838 Z" style="fill: rgb(27, 24, 103);"/>
  <path opacity="1.000000" stroke="none" d="M 343.444 128.559 C 343.283 132.477 341.709 135.91 341.049 139.96 C 344.079 138.254 345.484 134.862 348.397 133.637 C 348.999 134.441 348.854 134.85 348.533 135.182 C 345.924 137.894 343.314 140.606 340.679 143.289 C 340.089 143.888 339.442 144.769 338.486 144.011 C 337.618 143.322 338.106 142.396 338.336 141.55 C 339.143 138.593 340.458 135.769 340.704 132.232 C 337.801 134.199 336.125 137.119 333.53 138.794 C 332.435 137.835 332.94 137.147 333.491 136.574 C 336.103 133.858 338.741 131.17 341.382 128.483 C 341.991 127.864 342.657 127.521 343.444 128.559 Z" style="fill: rgb(27, 24, 103);"/>
  <path opacity="1.000000" stroke="none" d="M 176.556 300.116 C 174.933 296.86 174.895 293.78 176.424 290.698 C 178.446 286.624 183.5 286.035 186.32 289.545 C 188.918 292.78 188.882 297.993 186.239 301.184 C 183.793 304.136 179.155 303.709 176.556 300.116 M 177.284 294.729 C 177.403 299.266 179.312 301.617 182.448 301.09 C 184.754 300.704 186.265 298.379 186.281 295.19 C 186.297 292.238 184.604 289.575 182.431 289.218 C 180.858 288.962 179.524 289.441 178.584 290.837 C 177.883 291.879 177.443 293.029 177.284 294.729 Z" style="fill: rgb(27, 24, 103);"/>
  <path opacity="1.000000" stroke="none" d="M 382.691 218.141 C 383.191 217.677 383.564 217.324 384.291 216.635 C 380.521 216.702 377.41 218.584 374.075 218.311 C 373.684 216.957 374.451 216.71 375.237 216.534 C 378.602 215.783 381.966 215.026 385.341 214.331 C 386.193 214.155 387.285 213.51 387.799 214.862 C 388.209 215.936 387.326 216.439 386.677 217.015 C 384.268 219.151 381.866 221.295 379.185 223.683 C 382.787 224.144 385.922 221.67 389.335 222.514 C 389.105 223.868 388.285 223.895 387.677 224.043 C 384.494 224.815 381.3 225.549 378.095 226.218 C 377.223 226.401 376.102 226.823 375.575 225.641 C 375.093 224.561 376.11 224.076 376.723 223.513 C 378.654 221.741 380.614 220.003 382.691 218.141 Z" style="fill: rgb(27, 24, 103);"/>
  <path opacity="1.000000" stroke="none" d="M 295.681 113.284 C 295.029 113.287 294.589 113.337 294.168 113.267 C 289.937 112.572 289.351 111.628 290.774 107.55 C 291.683 104.95 292.762 102.415 293.687 99.821 C 294.234 98.286 294.988 97.752 296.625 98.321 C 300.487 99.663 302.163 101.529 302.093 104.796 C 302.007 108.971 299.523 112.37 295.681 113.284 M 298.629 101.312 C 296.53 99.924 295.193 100.355 294.471 102.95 C 293.95 104.823 293.202 106.638 292.449 108.431 C 291.726 110.153 292.467 110.876 293.974 111.279 C 296.132 111.859 297.623 110.917 298.818 109.152 C 300.582 106.544 300.634 104.042 298.629 101.312 Z" style="fill: rgb(27, 24, 103);"/>
  <path opacity="1.000000" stroke="none" d="M 253 297.309 C 251.771 295.876 250.125 295.787 248.717 295.162 C 246.527 294.19 245.589 292.328 246.237 290.27 C 246.919 288.102 249.003 286.926 251.421 287.347 C 253.657 287.737 254.939 289.348 254.861 291.692 C 253.688 292.227 253.399 291.228 252.952 290.51 C 252.126 289.181 250.921 288.924 249.562 289.329 C 248.632 289.607 248.159 290.354 248.182 291.355 C 248.219 292.922 249.315 293.408 250.547 293.743 C 251.046 293.879 251.538 294.05 252.022 294.236 C 254.251 295.096 255.71 296.579 255.487 299.221 C 255.318 301.216 254.229 302.568 252.306 302.91 C 249.927 303.333 247.605 303.273 246.134 300.786 C 245.74 300.122 245.122 299.276 245.967 298.658 C 246.859 298.007 247.31 298.909 247.73 299.595 C 248.872 301.459 250.579 301.536 252.273 300.819 C 253.766 300.186 253.849 298.858 253 297.309 Z" style="fill: rgb(27, 24, 103);"/>
  <path opacity="1.000000" stroke="none" d="M 242.964 94.048 C 243.083 95.982 243.058 97.679 242.547 99.314 C 241.814 101.66 240.242 103.149 237.86 103.279 C 235.494 103.408 233.79 102.229 232.834 99.863 C 231.709 97.077 231.642 94.331 232.715 91.545 C 233.598 89.25 235.244 87.791 237.624 87.899 C 240.063 88.011 241.764 89.512 242.508 91.997 C 242.686 92.591 242.795 93.208 242.964 94.048 M 240.521 91.892 C 239.694 90.519 238.615 89.499 236.939 89.89 C 235.342 90.262 234.654 91.59 234.16 93.101 C 233.551 94.963 233.622 96.776 234.276 98.581 C 234.862 100.196 235.802 101.354 237.68 101.259 C 239.405 101.171 240.287 100.1 240.782 98.534 C 241.445 96.435 241.487 94.345 240.521 91.892 Z" style="fill: rgb(27, 24, 103);"/>
  <path opacity="1.000000" stroke="none" d="M 335.913 293.536 C 334.981 290.122 336.03 287.939 338.675 287.383 C 341.615 286.767 343.907 288.42 344.351 291.499 C 343.068 292.388 342.753 291.146 342.221 290.44 C 341.382 289.329 340.299 288.965 339.011 289.315 C 338.109 289.56 337.504 290.154 337.394 291.17 C 337.283 292.197 337.752 292.921 338.619 293.298 C 339.728 293.779 340.919 294.062 342.005 294.586 C 344.361 295.724 345.339 297.776 344.687 299.967 C 343.975 302.358 341.895 303.437 338.803 303.022 C 336.299 302.686 335.146 301.349 335.044 298.643 C 336 298.026 336.455 298.724 336.863 299.43 C 337.545 300.608 338.529 301.181 339.853 301.175 C 341.136 301.169 342.342 300.914 342.729 299.455 C 343.137 297.913 342.336 296.905 341.042 296.249 C 339.368 295.401 337.283 295.423 335.913 293.536 Z" style="fill: rgb(27, 24, 103);"/>
  <path opacity="1.000000" stroke="none" d="M 324.323 130.259 C 323.066 129.87 322.963 129.062 323.566 128.009 C 324.004 127.243 324.487 126.502 324.894 125.719 C 325.692 124.183 324.922 123.252 323.733 122.397 C 322.436 121.464 321.731 122.154 320.973 123.187 C 320.194 124.25 319.769 125.755 318.332 126.047 C 317.337 125.269 317.785 124.652 318.182 124.069 C 320.214 121.086 322.292 118.137 324.281 115.123 C 325.134 113.831 325.998 113.494 327.247 114.511 C 328.394 115.446 329.665 116.243 330.468 117.556 C 331.389 119.061 331.208 120.862 330.006 121.699 C 327.054 123.755 326.494 127.36 324.37 130.108 C 324.311 130.275 324.323 130.259 324.323 130.259 M 328.934 118.633 C 328.176 117.527 327.228 116.687 325.827 116.163 C 325.054 117.314 324.335 118.383 323.575 119.515 C 324.669 120.762 325.704 121.73 327.225 121.456 C 328.467 121.232 329.127 120.321 328.934 118.633 Z" style="fill: rgb(27, 24, 103);"/>
  <path opacity="1.000000" stroke="none" d="M 371.18 166.574 C 373.479 171.407 372.376 173.589 367.46 174.083 C 366.602 174.169 366.337 174.717 365.865 175.206 C 364.425 176.7 362.844 177.931 360.538 177.921 C 360.493 176.069 361.906 176.039 362.758 175.493 C 363.831 174.806 364.78 174.127 364.678 172.616 C 364.53 170.439 363.445 169.78 361.489 170.582 C 360.268 171.082 359.187 172.107 357.763 171.953 C 357.171 170.697 358.051 170.391 358.688 170.042 C 361.655 168.415 364.677 166.89 367.613 165.202 C 369.309 164.226 370.341 164.707 371.18 166.574 M 370.079 171.3 C 370.559 168.425 369.672 166.624 367.99 167.165 C 367.065 167.462 365.852 167.741 365.634 168.931 C 365.434 170.017 366.082 170.993 366.818 171.73 C 367.805 172.715 368.848 172.288 370.079 171.3 Z" style="fill: rgb(27, 24, 103);"/>
  <path opacity="1.000000" stroke="none" d="M 374.451 213.709 C 370.47 210.724 370.604 206.683 374.609 204.183 C 376.906 202.75 379.374 202.182 382.044 202.77 C 384.056 203.214 385.587 204.286 386.026 206.454 C 386.504 208.811 386.01 210.966 383.912 212.306 C 381.05 214.136 378.024 215.305 374.451 213.709 M 383.938 206.198 C 381.36 203.642 375.943 204.213 374.017 207.231 C 373.092 208.681 373.124 210.087 374.248 211.367 C 375.706 213.026 378.474 213.086 381.477 211.613 C 383.554 210.596 384.823 209.133 383.938 206.198 Z" style="fill: rgb(27, 24, 103);"/>
  <path opacity="1.000000" stroke="none" d="M 244.798 89.94 C 246.34 86.979 248.556 88.441 250.464 88.828 C 252.519 89.246 253.423 91.174 252.799 92.912 C 251.844 95.568 252.462 98.116 252.384 100.712 C 252.357 101.622 252.657 102.706 251.525 103.419 C 250.094 102.562 250.653 101.092 250.626 99.905 C 250.591 98.42 250.316 97.276 248.741 96.872 C 247.094 96.449 246.094 96.771 246.025 98.83 C 245.979 100.224 246.478 101.84 245.154 103.025 C 243.944 101.697 243.851 97.442 244.798 89.94 M 247.909 90.254 C 245.679 90.381 246.214 92.133 246.268 93.446 C 246.331 95.028 247.652 94.784 248.63 94.809 C 250.001 94.842 251.024 94.238 251.073 92.667 C 251.13 90.733 249.821 90.341 247.909 90.254 Z" style="fill: rgb(27, 24, 103);"/>
  <path opacity="1.000000" stroke="none" d="M 362.28 166.453 C 358.03 168.401 355.079 167.982 353.589 165.342 C 351.947 162.434 353.112 159.159 356.699 156.553 C 357.774 155.772 358.961 155.268 360.231 154.98 C 362.824 154.391 365.094 155.317 366.259 157.439 C 367.541 159.778 367.001 161.89 365.432 163.837 C 364.599 164.872 363.596 165.707 362.28 166.453 M 357.074 165.83 C 360.246 166.007 362.767 164.787 364.468 161.991 C 365.957 159.54 364.525 156.833 361.734 156.7 C 359.35 156.589 356.222 158.519 355.257 160.802 C 354.404 162.823 354.486 164.625 357.074 165.83 Z" style="fill: rgb(27, 24, 103);"/>
  <path opacity="1.000000" stroke="none" d="M 318.082 302.69 C 315.166 303.467 312.627 303.216 311.003 300.582 C 308.979 297.302 309.109 293.773 310.75 290.385 C 311.912 287.985 314.042 287.094 316.595 287.317 C 319.292 287.553 321.02 289.663 320.487 292.522 C 318.28 290.465 316.275 287.168 313.052 290.469 C 311.157 292.411 311.003 296.747 312.501 299.283 C 313.131 300.349 314.057 300.933 315.217 301.119 C 316.287 301.29 317.23 300.948 318.145 300.341 C 319.003 299.772 319.141 298.082 320.852 298.599 C 321.152 300.739 319.744 301.693 318.082 302.69 Z" style="fill: rgb(27, 24, 103);"/>
  <path opacity="1.000000" stroke="none" d="M 303.979 105.541 C 305.685 102.172 305.694 102.154 308.9 103.649 C 310.12 104.218 311.557 104.481 312.424 106.159 C 310.065 107.665 308.563 104.645 306.485 105.077 C 305.727 105.976 305.205 107.051 305.039 108.246 C 306.022 110.035 308.835 109.261 309.367 111.759 C 308.022 112.738 306.993 111.775 306.032 111.242 C 304.499 110.391 303.547 110.561 302.784 112.317 C 302.045 114.015 302.13 115.082 303.959 115.894 C 305.085 116.395 306.672 116.576 307.091 118.765 C 304.218 118.58 302.169 117.199 300.258 115.683 C 299.453 115.045 300.138 113.989 300.48 113.213 C 301.585 110.7 302.761 108.22 303.979 105.541 Z" style="fill: rgb(27, 24, 103);"/>
  <path opacity="1.000000" stroke="none" d="M 324.306 130.283 C 327.919 127.887 331.533 125.474 335.161 123.085 C 335.852 122.631 336.562 121.828 337.441 122.704 C 338.176 123.438 337.618 124.19 337.333 124.909 C 335.997 128.284 334.664 131.66 333.303 135.025 C 332.964 135.864 332.873 137.046 331.477 136.784 C 330.587 135.658 331.497 134.752 331.859 133.85 C 332.36 132.599 332.597 131.592 331.372 130.549 C 330.147 129.508 329.099 129.274 327.654 130.112 C 326.727 130.651 325.772 132.41 324.377 130.441 C 324.323 130.259 324.311 130.275 324.306 130.283 M 334.659 126.137 C 333.186 125.794 332.493 126.966 331.551 127.695 C 331.893 128.698 332.328 129.364 333.569 129.261 C 333.921 128.353 334.294 127.389 334.659 126.137 Z" style="fill: rgb(27, 24, 103);"/>
  <path opacity="1.000000" stroke="none" d="M 346.299 148.726 C 348.055 147.736 348.251 146.414 347.586 144.786 C 347.149 143.716 346.873 142.601 346.926 141.412 C 347.014 139.436 348.045 138.251 349.837 137.851 C 352.049 137.357 353.517 138.578 354.384 140.499 C 355.162 142.223 354.701 143.722 353.133 144.762 C 352.304 144.328 352.372 143.717 352.555 143.093 C 352.951 141.746 352.733 140.623 351.486 139.873 C 350.83 139.479 350.155 139.465 349.562 139.988 C 348.435 140.985 348.74 142.198 349.112 143.428 C 349.369 144.276 349.676 145.131 349.768 146.003 C 349.966 147.871 349.192 149.299 347.6 150.196 C 345.892 151.157 344.248 150.94 342.827 149.602 C 341.465 148.32 340.781 146.721 341.396 144.801 C 341.662 143.97 342.094 143.172 343.353 143.199 C 343.492 145.495 341.901 148.807 346.299 148.726 Z" style="fill: rgb(27, 24, 103);"/>
  <path opacity="1.000000" stroke="none" d="M 376.646 187.622 C 373.674 190.119 370.843 192.495 368.024 194.862 C 366.801 193.489 367.649 192.89 368.298 192.397 C 369.806 191.251 370.781 190.1 369.88 187.933 C 369.007 185.831 367.556 186.245 366.008 186.501 C 365.23 186.629 364.432 186.706 363.972 185.299 C 365.827 184.377 367.922 184.833 369.829 184.448 C 372.006 184.007 374.267 183.964 376.494 183.846 C 377.377 183.799 378.544 183.482 378.9 184.771 C 379.191 185.826 378.296 186.324 377.616 186.86 C 377.342 187.075 377.065 187.286 376.646 187.622 M 371.918 188.216 C 373.757 188.839 374.117 187.191 374.889 186.159 C 373.82 186.71 371.191 184.353 371.918 188.216 Z" style="fill: rgb(27, 24, 103);"/>
  <path opacity="1.000000" stroke="none" d="M 359.836 147.743 C 361.459 150.619 361.224 152.293 359.099 153.898 C 356.773 155.656 354.895 155.518 353.092 152.997 C 351.784 151.166 350.743 151.425 349.303 152.636 C 348.504 153.307 347.779 154.463 346.395 153.813 C 345.965 152.453 347.113 152.142 347.789 151.618 C 349.995 149.908 352.266 148.287 354.485 146.593 C 357.538 144.262 357.528 144.247 359.836 147.743 M 354.273 151.607 C 355.448 153.402 356.843 153.571 358.299 152.047 C 359.555 150.731 358.999 149.031 356.7 147.167 C 355.805 148.541 352.804 148.341 354.273 151.607 Z" style="fill: rgb(27, 24, 103);"/>
  <path opacity="1.000000" stroke="none" d="M 275.631 289.842 C 274.689 291.767 275.193 293.662 275.097 295.508 C 275.013 297.106 275.119 298.715 275.059 300.317 C 275.024 301.243 275.24 302.614 273.974 302.663 C 272.592 302.717 272.894 301.311 272.878 300.413 C 272.827 297.741 272.762 295.062 272.894 292.395 C 273.005 290.133 272.265 289.011 269.965 289.241 C 269.3 289.308 268.473 289.37 268.43 288.328 C 268.404 287.684 268.945 287.365 269.469 287.361 C 272.393 287.337 275.317 287.343 278.241 287.413 C 278.793 287.425 279.109 287.933 279.03 288.68 C 278.237 289.812 276.756 288.984 275.631 289.842 Z" style="fill: rgb(27, 24, 103);"/>
  <path opacity="1.000000" stroke="none" d="M 158.854 303.029 C 152.434 302.923 153.199 303.684 153.131 297.26 C 153.103 294.683 153.117 292.105 153.143 289.528 C 153.151 288.748 153.068 287.679 154.055 287.598 C 155.223 287.505 155.308 288.634 155.316 289.514 C 155.35 293.23 155.33 296.946 155.33 300.775 C 157.511 301.495 160 300 162.029 301.874 C 161.345 303.355 160.116 302.92 158.854 303.029 Z" style="fill: rgb(27, 24, 103);"/>
  <path opacity="1.000000" stroke="none" d="M 376.799 178.883 C 377.457 180.555 377.457 180.555 376.622 181.613 C 376.47 181.563 376.212 181.553 376.172 181.451 C 375.053 178.618 373.395 178.501 370.998 179.997 C 369.104 181.179 366.94 181.901 364.889 182.809 C 364.2 183.116 363.477 183.605 362.741 182.589 C 363.009 181.391 364.173 181.278 365.018 180.842 C 366.475 180.088 368.01 179.494 369.472 178.75 C 371.567 177.684 374.559 177.18 372.853 173.469 C 372.803 173.36 373.116 173.073 373.502 172.529 C 375.446 174.211 375.553 176.79 376.799 178.883 Z" style="fill: rgb(27, 24, 103);"/>
  <path opacity="1.000000" stroke="none" d="M 382.399 197.82 C 382.255 197.723 382.022 197.657 381.98 197.525 C 380.727 193.582 378.191 194.562 375.558 195.672 C 373.97 196.342 372.333 196.894 370.702 197.45 C 369.927 197.715 369.12 198.29 368.317 197.498 C 368.056 196.483 368.756 196.286 369.419 196.046 C 371.932 195.138 374.413 194.111 376.967 193.351 C 378.929 192.767 380.145 192.016 379.065 189.676 C 378.945 189.416 379.094 189.023 379.121 188.672 C 381.17 189.089 383.212 194.478 382.481 197.664 C 382.379 197.83 382.399 197.82 382.399 197.82 Z" style="fill: rgb(27, 24, 103);"/>
  <path opacity="1.000000" stroke="none" d="M 316.512 118.965 C 315.49 120.472 315.161 122.364 313.392 123.069 C 312.468 121.734 313.341 120.978 313.77 120.201 C 315.006 117.964 316.255 115.728 317.62 113.574 C 318.539 112.125 318.671 111.021 317.031 110.079 C 316.431 109.736 315.808 109.166 316.459 108.379 C 316.974 107.756 317.604 108.189 318.067 108.553 C 320.082 110.132 322.689 110.848 324.341 112.946 C 323.679 114.405 322.851 113.77 322.173 113.312 C 320.789 112.375 320.008 112.933 319.303 114.251 C 318.471 115.805 317.513 117.287 316.512 118.965 Z" style="fill: rgb(27, 24, 103);"/>
  <path opacity="1.000000" stroke="none" d="M 230.963 291.223 C 230.873 295.003 230.789 298.544 230.669 302.085 C 230.663 302.281 230.355 302.468 230.189 302.657 C 228.616 301.375 228.314 290.401 229.796 287.546 C 231.316 288.304 230.801 289.776 230.963 291.223 Z" style="fill: rgb(27, 24, 103);"/>
  <path opacity="1.000000" stroke="none" d="M 293.415 287.892 C 294.558 287.384 294.842 288.084 294.842 288.831 C 294.847 293.187 294.804 297.544 294.735 301.899 C 294.732 302.173 294.38 302.44 294.178 302.728 C 292.929 301.427 292.515 294.039 293.415 287.892 Z" style="fill: rgb(27, 24, 103);"/>
  <path opacity="1.000000" stroke="none" d="M 289.917 98.515 C 290.217 97.566 290.393 96.747 291.364 96.635 C 292.081 98.126 288.893 108.867 286.876 110.478 C 286.856 106.315 288.602 102.572 289.917 98.515 Z" style="fill: rgb(27, 24, 103);"/>
  <path opacity="1.000000" stroke="none" d="M 382.37 197.836 C 383.413 197.992 384.317 198.872 383.184 199.448 C 379.145 201.503 374.713 202.372 370.266 203.198 C 373.612 199.941 378.31 200.115 382.249 197.935 C 382.399 197.82 382.379 197.83 382.37 197.836 Z" style="fill: rgb(27, 24, 103);"/>
</svg>